<!-- SVG-спрайт -->
<svg style="display: none;"
xmlns="http://www.w3.org/2000/svg">
<symbol id="astro" viewBox="0 0 24 24">
<path style="fill:#BC52EE;" d="M8.358 20.162c-1.186-1.07-1.532-3.316-1.038-4.944.856 1.026 2.043 1.352 3.272 1.535 1.897.283 3.76.177 5.522-.678.202-.098.388-.229.608-.36.166.473.209.95.151 1.437-.14 1.185-.738 2.1-1.688 2.794-.38.277-.782.525-1.175.787-1.205.804-1.531 1.747-1.078 3.119l.044.148a3.158 3.158 0 0 1-1.407-1.188 3.31 3.31 0 0 1-.544-1.815c-.004-.32-.004-.642-.048-.958-.106-.769-.472-1.113-1.161-1.133-.707-.02-1.267.411-1.415 1.09-.012.053-.028.104-.045.165h.002zm-5.961-4.445s3.24-1.575 6.49-1.575l2.451-7.565c.092-.366.36-.614.662-.614.302 0 .57.248.662.614l2.45 7.565c3.85 0 6.491 1.575 6.491 1.575L16.088.727C15.93.285 15.663 0 15.303 0H8.697c-.36 0-.615.285-.784.727l-5.516 14.99z"/>
</symbol>
<symbol id="css3" viewBox="0 0 24 24">
<path style="fill:#1572B6;" d="M1.5 0h21l-1.91 21.563L11.977 24l-8.565-2.438L1.5 0zm17.09 4.413L5.41 4.41l.213 2.622 10.125.002-.255 2.716h-6.64l.24 2.573h6.182l-.366 3.523-2.91.804-2.956-.81-.188-2.11h-2.61l.29 3.855L12 19.288l5.373-1.53L18.59 4.414z"/>
</symbol>
<symbol id="docker" viewBox="0 0 24 24">
<path style="fill:#2496ED;" d="M13.983 11.078h2.119a.186.186 0 00.186-.185V9.006a.186.186 0 00-.186-.186h-2.119a.185.185 0 00-.185.185v1.888c0 .102.083.185.185.185m-2.954-5.43h2.118a.186.186 0 00.186-.186V3.574a.186.186 0 00-.186-.185h-2.118a.185.185 0 00-.185.185v1.888c0 .102.082.185.185.185m0 2.716h2.118a.187.187 0 00.186-.186V6.29a.186.186 0 00-.186-.185h-2.118a.185.185 0 00-.185.185v1.887c0 .102.082.185.185.186m-2.93 0h2.12a.186.186 0 00.184-.186V6.29a.185.185 0 00-.185-.185H8.1a.185.185 0 00-.185.185v1.887c0 .102.083.185.185.186m-2.964 0h2.119a.186.186 0 00.185-.186V6.29a.185.185 0 00-.185-.185H5.136a.186.186 0 00-.186.185v1.887c0 .102.084.185.186.186m5.893 2.715h2.118a.186.186 0 00.186-.185V9.006a.186.186 0 00-.186-.186h-2.118a.185.185 0 00-.185.185v1.888c0 .102.082.185.185.185m-2.93 0h2.12a.185.185 0 00.184-.185V9.006a.185.185 0 00-.184-.186h-2.12a.185.185 0 00-.184.185v1.888c0 .102.083.185.185.185m-2.964 0h2.119a.185.185 0 00.185-.185V9.006a.185.185 0 00-.184-.186h-2.12a.186.186 0 00-.186.186v1.887c0 .102.084.185.186.185m-2.92 0h2.12a.185.185 0 00.184-.185V9.006a.185.185 0 00-.184-.186h-2.12a.185.185 0 00-.184.185v1.888c0 .102.082.185.185.185M23.763 9.89c-.065-.051-.672-.51-1.954-.51-.338.001-.676.03-1.01.087-.248-1.7-1.653-2.53-1.716-2.566l-.344-.199-.226.327c-.284.438-.49.922-.612 1.43-.23.97-.09 1.882.403 2.661-.595.332-1.55.413-1.744.42H.751a.751.751 0 00-.75.748 11.376 11.376 0 00.692 4.062c.545 1.428 1.355 2.48 2.41 3.124 1.18.723 3.1 1.137 5.275 1.137.983.003 1.963-.086 2.93-.266a12.248 12.248 0 003.823-1.389c.98-.567 1.86-1.288 2.61-2.136 1.252-1.418 1.998-2.997 2.553-4.4h.221c1.372 0 2.215-.549 2.68-1.009.309-.293.55-.65.707-1.046l.098-.288Z"/>
</symbol>
<symbol id="express" viewBox="0 0 24 24">
<path style="fill:#ffffff;" d="M24 18.588a1.529 1.529 0 01-1.895-.72l-3.45-4.771-.5-.667-4.003 5.444a1.466 1.466 0 01-1.802.708l5.158-6.92-4.798-6.251a1.595 1.595 0 011.9.666l3.576 4.83 3.596-4.81a1.435 1.435 0 011.788-.668L21.708 7.9l-2.522 3.283a.666.666 0 000 .994l4.804 6.412zM.002 11.576l.42-2.075c1.154-4.103 5.858-5.81 9.094-3.27 1.895 1.489 2.368 3.597 2.275 5.973H1.116C.943 16.447 4.005 19.009 7.92 17.7a4.078 4.078 0 002.582-2.876c.207-.666.548-.78 1.174-.588a5.417 5.417 0 01-2.589 3.957 6.272 6.272 0 01-7.306-.933 6.575 6.575 0 01-1.64-3.858c0-.235-.08-.455-.134-.666A88.33 88.33 0 010 11.577zm1.127-.286h9.654c-.06-3.076-2.001-5.258-4.59-5.278-2.882-.04-4.944 2.094-5.071 5.264z"/>
</symbol>
<symbol id="git" viewBox="0 0 24 24">
<path style="fill:#F05032;" d="M23.546 10.93L13.067.452c-.604-.603-1.582-.603-2.188 0L8.708 2.627l2.76 2.76c.645-.215 1.379-.07 1.889.441.516.515.658 1.258.438 1.9l2.658 2.66c.645-.223 1.387-.078 1.9.435.721.72.721 1.884 0 2.604-.719.719-1.881.719-2.6 0-.539-.541-.674-1.337-.404-1.996L12.86 8.955v6.525c.176.086.342.203.488.348.713.721.713 1.883 0 2.6-.719.721-1.889.721-2.609 0-.719-.719-.719-1.879 0-2.598.182-.18.387-.316.605-.406V8.835c-.217-.091-.424-.222-.6-.401-.545-.545-.676-1.342-.396-2.009L7.636 3.7.45 10.881c-.6.605-.6 1.584 0 2.189l10.48 10.477c.604.604 1.582.604 2.186 0l10.43-10.43c.605-.603.605-1.582 0-2.187"/>
</symbol>
<symbol id="gitHub" viewBox="0 0 24 24">
<path style="fill:#181717;" d="M12 .297c-6.63 0-12 5.373-12 12 0 5.303 3.438 9.8 8.205 11.385.6.113.82-.258.82-.577 0-.285-.01-1.04-.015-2.04-3.338.724-4.042-1.61-4.042-1.61C4.422 18.07 3.633 17.7 3.633 17.7c-1.087-.744.084-.729.084-.729 1.205.084 1.838 1.236 1.838 1.236 1.07 1.835 2.809 1.305 3.495.998.108-.776.417-1.305.76-1.605-2.665-.3-5.466-1.332-5.466-5.93 0-1.31.465-2.38 1.235-3.22-.135-.303-.54-1.523.105-3.176 0 0 1.005-.322 3.3 1.23.96-.267 1.98-.399 3-.405 1.02.006 2.04.138 3 .405 2.28-1.552 3.285-1.23 3.285-1.23.645 1.653.24 2.873.12 3.176.765.84 1.23 1.91 1.23 3.22 0 4.61-2.805 5.625-5.475 5.92.42.36.81 1.096.81 2.22 0 1.606-.015 2.896-.015 3.286 0 .315.21.69.825.57C20.565 22.092 24 17.592 24 12.297c0-6.627-5.373-12-12-12"/>
</symbol>
<symbol id="html5" viewBox="0 0 24 24">
<path style="fill:#E34F26;" d="M1.5 0h21l-1.91 21.563L11.977 24l-8.564-2.438L1.5 0zm7.031 9.75l-.232-2.718 10.059.003.23-2.622L5.412 4.41l.698 8.01h9.126l-.326 3.426-2.91.804-2.955-.81-.188-2.11H6.248l.33 4.171L12 19.351l5.379-1.443.744-8.157H8.531z"/>
</symbol>
<symbol id="javaScript" viewBox="0 0 24 24">
<path style="fill:#F7DF1E;" d="M0 0h24v24H0V0zm22.034 18.276c-.175-1.095-.888-2.015-3.003-2.873-.736-.345-1.554-.585-1.797-1.14-.091-.33-.105-.51-.046-.705.15-.646.915-.84 1.515-.66.39.12.75.42.976.9 1.034-.676 1.034-.676 1.755-1.125-.27-.42-.404-.601-.586-.78-.63-.705-1.469-1.065-2.834-1.034l-.705.089c-.676.165-1.32.525-1.71 1.005-1.14 1.291-.811 3.541.569 4.471 1.365 1.02 3.361 1.244 3.616 2.205.24 1.17-.87 1.545-1.966 1.41-.811-.18-1.26-.586-1.755-1.336l-1.83 1.051c.21.48.45.689.81 1.109 1.74 1.756 6.09 1.666 6.871-1.004.029-.09.24-.705.074-1.65l.046.067zm-8.983-7.245h-2.248c0 1.938-.009 3.864-.009 5.805 0 1.232.063 2.363-.138 2.711-.33.689-1.18.601-1.566.48-.396-.196-.597-.466-.83-.855-.063-.105-.11-.196-.127-.196l-1.825 1.125c.305.63.75 1.172 1.324 1.517.855.51 2.004.675 3.207.405.783-.226 1.458-.691 1.811-1.411.51-.93.402-2.07.397-3.346.012-2.054 0-4.109 0-6.179l.004-.056z"/>
</symbol>
<symbol id="nextJs" viewBox="0 0 24 24">
<path style="fill:#000000;" d="M18.665 21.978C16.758 23.255 14.465 24 12 24 5.377 24 0 18.623 0 12S5.377 0 12 0s12 5.377 12 12c0 3.583-1.574 6.801-4.067 9.001L9.219 7.2H7.2v9.596h1.615V9.251l9.85 12.727Zm-3.332-8.533 1.6 2.061V7.2h-1.6v6.245Z"/>
</symbol>
<symbol id="nodeJs" viewBox="0 0 24 24">
<path style="fill:#339933;" d="M11.998,24c-0.321,0-0.641-0.084-0.922-0.247l-2.936-1.737c-0.438-0.245-0.224-0.332-0.08-0.383 c0.585-0.203,0.703-0.25,1.328-0.604c0.065-0.037,0.151-0.023,0.218,0.017l2.256,1.339c0.082,0.045,0.197,0.045,0.272,0l8.795-5.076 c0.082-0.047,0.134-0.141,0.134-0.238V6.921c0-0.099-0.053-0.192-0.137-0.242l-8.791-5.072c-0.081-0.047-0.189-0.047-0.271,0 L3.075,6.68C2.99,6.729,2.936,6.825,2.936,6.921v10.15c0,0.097,0.054,0.189,0.139,0.235l2.409,1.392 c1.307,0.654,2.108-0.116,2.108-0.89V7.787c0-0.142,0.114-0.253,0.256-0.253h1.115c0.139,0,0.255,0.112,0.255,0.253v10.021 c0,1.745-0.95,2.745-2.604,2.745c-0.508,0-0.909,0-2.026-0.551L2.28,18.675c-0.57-0.329-0.922-0.945-0.922-1.604V6.921 c0-0.659,0.353-1.275,0.922-1.603l8.795-5.082c0.557-0.315,1.296-0.315,1.848,0l8.794,5.082c0.57,0.329,0.924,0.944,0.924,1.603 v10.15c0,0.659-0.354,1.273-0.924,1.604l-8.794,5.078C12.643,23.916,12.324,24,11.998,24z M19.099,13.993 c0-1.9-1.284-2.406-3.987-2.763c-2.731-0.361-3.009-0.548-3.009-1.187c0-0.528,0.235-1.233,2.258-1.233 c1.807,0,2.473,0.389,2.747,1.607c0.024,0.115,0.129,0.199,0.247,0.199h1.141c0.071,0,0.138-0.031,0.186-0.081 c0.048-0.054,0.074-0.123,0.067-0.196c-0.177-2.098-1.571-3.076-4.388-3.076c-2.508,0-4.004,1.058-4.004,2.833 c0,1.925,1.488,2.457,3.895,2.695c2.88,0.282,3.103,0.703,3.103,1.269c0,0.983-0.789,1.402-2.642,1.402 c-2.327,0-2.839-0.584-3.011-1.742c-0.02-0.124-0.126-0.215-0.253-0.215h-1.137c-0.141,0-0.254,0.112-0.254,0.253 c0,1.482,0.806,3.248,4.655,3.248C17.501,17.007,19.099,15.91,19.099,13.993z"/>
</symbol>
<symbol id="react" viewBox="0 0 24 24">
<path style="fill:#61DAFB;" d="M14.23 12.004a2.236 2.236 0 0 1-2.235 2.236 2.236 2.236 0 0 1-2.236-2.236 2.236 2.236 0 0 1 2.235-2.236 2.236 2.236 0 0 1 2.236 2.236zm2.648-10.69c-1.346 0-3.107.96-4.888 2.622-1.78-1.653-3.542-2.602-4.887-2.602-.41 0-.783.093-1.106.278-1.375.793-1.683 3.264-.973 6.365C1.98 8.917 0 10.42 0 12.004c0 1.59 1.99 3.097 5.043 4.03-.704 3.113-.39 5.588.988 6.38.32.187.69.275 1.102.275 1.345 0 3.107-.96 4.888-2.624 1.78 1.654 3.542 2.603 4.887 2.603.41 0 .783-.09 1.106-.275 1.374-.792 1.683-3.263.973-6.365C22.02 15.096 24 13.59 24 12.004c0-1.59-1.99-3.097-5.043-4.032.704-3.11.39-5.587-.988-6.38-.318-.184-.688-.277-1.092-.278zm-.005 1.09v.006c.225 0 .406.044.558.127.666.382.955 1.835.73 3.704-.054.46-.142.945-.25 1.44-.96-.236-2.006-.417-3.107-.534-.66-.905-1.345-1.727-2.035-2.447 1.592-1.48 3.087-2.292 4.105-2.295zm-9.77.02c1.012 0 2.514.808 4.11 2.28-.686.72-1.37 1.537-2.02 2.442-1.107.117-2.154.298-3.113.538-.112-.49-.195-.964-.254-1.42-.23-1.868.054-3.32.714-3.707.19-.09.4-.127.563-.132zm4.882 3.05c.455.468.91.992 1.36 1.564-.44-.02-.89-.034-1.345-.034-.46 0-.915.01-1.36.034.44-.572.895-1.096 1.345-1.565zM12 8.1c.74 0 1.477.034 2.202.093.406.582.802 1.203 1.183 1.86.372.64.71 1.29 1.018 1.946-.308.655-.646 1.31-1.013 1.95-.38.66-.773 1.288-1.18 1.87-.728.063-1.466.098-2.21.098-.74 0-1.477-.035-2.202-.093-.406-.582-.802-1.204-1.183-1.86-.372-.64-.71-1.29-1.018-1.946.303-.657.646-1.313 1.013-1.954.38-.66.773-1.286 1.18-1.868.728-.064 1.466-.098 2.21-.098zm-3.635.254c-.24.377-.48.763-.704 1.16-.225.39-.435.782-.635 1.174-.265-.656-.49-1.31-.676-1.947.64-.15 1.315-.283 2.015-.386zm7.26 0c.695.103 1.365.23 2.006.387-.18.632-.405 1.282-.66 1.933-.2-.39-.41-.783-.64-1.174-.225-.392-.465-.774-.705-1.146zm3.063.675c.484.15.944.317 1.375.498 1.732.74 2.852 1.708 2.852 2.476-.005.768-1.125 1.74-2.857 2.475-.42.18-.88.342-1.355.493-.28-.958-.646-1.956-1.1-2.98.45-1.017.81-2.01 1.085-2.964zm-13.395.004c.278.96.645 1.957 1.1 2.98-.45 1.017-.812 2.01-1.086 2.964-.484-.15-.944-.318-1.37-.5-1.732-.737-2.852-1.706-2.852-2.474 0-.768 1.12-1.742 2.852-2.476.42-.18.88-.342 1.356-.494zm11.678 4.28c.265.657.49 1.312.676 1.948-.64.157-1.316.29-2.016.39.24-.375.48-.762.705-1.158.225-.39.435-.788.636-1.18zm-9.945.02c.2.392.41.783.64 1.175.23.39.465.772.705 1.143-.695-.102-1.365-.23-2.006-.386.18-.63.406-1.282.66-1.933zM17.92 16.32c.112.493.2.968.254 1.423.23 1.868-.054 3.32-.714 3.708-.147.09-.338.128-.563.128-1.012 0-2.514-.807-4.11-2.28.686-.72 1.37-1.536 2.02-2.44 1.107-.118 2.154-.3 3.113-.54zm-11.83.01c.96.234 2.006.415 3.107.532.66.905 1.345 1.727 2.035 2.446-1.595 1.483-3.092 2.295-4.11 2.295-.22-.005-.406-.05-.553-.132-.666-.38-.955-1.834-.73-3.703.054-.46.142-.944.25-1.438zm4.56.64c.44.02.89.034 1.345.034.46 0 .915-.01 1.36-.034-.44.572-.895 1.095-1.345 1.565-.455-.47-.91-.993-1.36-1.565z"/>
</symbol>
<symbol id="redux" viewBox="0 0 24 24">
<path style="fill:#764ABC;" d="M16.634 16.504c.87-.075 1.543-.84 1.5-1.754-.047-.914-.796-1.648-1.709-1.648h-.061a1.71 1.71 0 00-1.648 1.769c.03.479.226.869.494 1.153-1.048 2.038-2.621 3.536-5.005 4.795-1.603.838-3.296 1.154-4.944.93-1.378-.195-2.456-.81-3.116-1.799-.988-1.499-1.078-3.116-.255-4.734.6-1.17 1.499-2.023 2.099-2.443a9.96 9.96 0 01-.42-1.543C-.868 14.408-.416 18.752.932 20.805c1.004 1.498 3.057 2.456 5.304 2.456.6 0 1.23-.044 1.843-.194 3.897-.749 6.848-3.086 8.541-6.532zm5.348-3.746c-2.32-2.728-5.738-4.226-9.634-4.226h-.51c-.253-.554-.837-.899-1.498-.899h-.045c-.943 0-1.678.81-1.647 1.753.03.898.794 1.648 1.708 1.648h.074a1.69 1.69 0 001.499-1.049h.555c2.309 0 4.495.674 6.488 1.992 1.527 1.005 2.622 2.323 3.237 3.897.538 1.288.509 2.547-.045 3.597-.855 1.647-2.294 2.517-4.196 2.517-1.199 0-2.367-.375-2.967-.644-.36.298-.96.793-1.394 1.093 1.318.598 2.652.943 3.94.943 2.922 0 5.094-1.647 5.919-3.236.898-1.798.824-4.824-1.47-7.416zM6.49 17.042c.03.899.793 1.648 1.708 1.648h.06a1.688 1.688 0 001.648-1.768c0-.9-.779-1.647-1.693-1.647h-.06c-.06 0-.15 0-.226.029-1.243-2.098-1.768-4.347-1.572-6.772.12-1.828.72-3.417 1.797-4.735.9-1.124 2.593-1.68 3.747-1.708 3.236-.061 4.585 3.971 4.689 5.574l1.498.45C17.741 3.197 14.686.62 11.764.62 9.02.62 6.49 2.613 5.47 5.535 4.077 9.43 4.991 13.177 6.7 16.174c-.15.195-.24.539-.21.868z"/>
</symbol>
<symbol id="sass" viewBox="0 0 24 24">
<path style="fill:#CC6699;" d="M12 0c6.627 0 12 5.373 12 12s-5.373 12-12 12S0 18.627 0 12 5.373 0 12 0zM9.615 15.998c.175.645.156 1.248-.024 1.792l-.065.18c-.024.061-.052.12-.078.176-.14.29-.326.56-.555.81-.698.759-1.672 1.047-2.09.805-.45-.262-.226-1.335.584-2.19.871-.918 2.12-1.509 2.12-1.509v-.003l.108-.061zm9.911-10.861c-.542-2.133-4.077-2.834-7.422-1.645-1.989.707-4.144 1.818-5.693 3.267C4.568 8.48 4.275 9.98 4.396 10.607c.427 2.211 3.457 3.657 4.703 4.73v.006c-.367.18-3.056 1.529-3.686 2.925-.675 1.47.105 2.521.615 2.655 1.575.436 3.195-.36 4.065-1.649.84-1.261.766-2.881.404-3.676.496-.135 1.08-.195 1.83-.104 2.101.24 2.521 1.56 2.43 2.1-.09.539-.523.854-.674.944-.15.091-.195.12-.181.181.015.09.091.09.21.075.165-.03 1.096-.45 1.141-1.471.045-1.29-1.186-2.729-3.375-2.7-.9.016-1.471.091-1.875.256-.03-.045-.061-.075-.105-.105-1.35-1.455-3.855-2.475-3.75-4.41.03-.705.285-2.564 4.8-4.814 3.705-1.846 6.661-1.335 7.171-.21.733 1.604-1.576 4.59-5.431 5.024-1.47.165-2.235-.404-2.431-.615-.209-.225-.239-.24-.314-.194-.12.06-.045.255 0 .375.12.3.585.825 1.396 1.095.704.225 2.43.359 4.5-.45 2.324-.899 4.139-3.405 3.614-5.505l.073.067z"/>
</symbol>
<symbol id="typeScript" viewBox="0 0 24 24">
<path style="fill:#3178C6;" d="M1.125 0C.502 0 0 .502 0 1.125v21.75C0 23.498.502 24 1.125 24h21.75c.623 0 1.125-.502 1.125-1.125V1.125C24 .502 23.498 0 22.875 0zm17.363 9.75c.612 0 1.154.037 1.627.111a6.38 6.38 0 0 1 1.306.34v2.458a3.95 3.95 0 0 0-.643-.361 5.093 5.093 0 0 0-.717-.26 5.453 5.453 0 0 0-1.426-.2c-.3 0-.573.028-.819.086a2.1 2.1 0 0 0-.623.242c-.17.104-.3.229-.393.374a.888.888 0 0 0-.14.49c0 .196.053.373.156.529.104.156.252.304.443.444s.423.276.696.41c.273.135.582.274.926.416.47.197.892.407 1.266.628.374.222.695.473.963.753.268.279.472.598.614.957.142.359.214.776.214 1.253 0 .657-.125 1.21-.373 1.656a3.033 3.033 0 0 1-1.012 1.085 4.38 4.38 0 0 1-1.487.596c-.566.12-1.163.18-1.79.18a9.916 9.916 0 0 1-1.84-.164 5.544 5.544 0 0 1-1.512-.493v-2.63a5.033 5.033 0 0 0 3.237 1.2c.333 0 .624-.03.872-.09.249-.06.456-.144.623-.25.166-.108.29-.234.373-.38a1.023 1.023 0 0 0-.074-1.089 2.12 2.12 0 0 0-.537-.5 5.597 5.597 0 0 0-.807-.444 27.72 27.72 0 0 0-1.007-.436c-.918-.383-1.602-.852-2.053-1.405-.45-.553-.676-1.222-.676-2.005 0-.614.123-1.141.369-1.582.246-.441.58-.804 1.004-1.089a4.494 4.494 0 0 1 1.47-.629 7.536 7.536 0 0 1 1.77-.201zm-15.113.188h9.563v2.166H9.506v9.646H6.789v-9.646H3.375z"/>
</symbol>

<symbol id="phone" viewBox="0 0 512.001 512.001" >
<path style="fill:#fff3e4;" d="M462.491,468.206l-33.938,33.937c-6.062,6.031-23.812,9.844-24.343,9.844c-107.435,0.905-210.869-41.279-286.882-117.31 C41.097,318.46-1.136,214.619,0.036,106.872c0-0.063,3.891-17.312,9.938-23.312l33.937-33.968 c12.453-12.437,36.295-18.062,52.998-12.5l7.156,2.406c16.703,5.562,34.155,23.999,38.78,40.967l17.093,62.717 c4.64,17-1.594,41.186-14.031,53.623l-22.687,22.687c22.25,82.467,86.919,147.121,169.339,169.402l22.687-22.688 c12.438-12.438,36.687-18.656,53.687-14.031l62.718,17.125c16.937,4.594,35.374,22.03,40.968,38.748l2.375,7.156 C480.552,431.926,474.928,455.769,462.491,468.206z M287.996,255.993h31.999c0-35.343-28.655-63.998-63.998-63.998v31.999 C273.636,223.994,287.996,238.368,287.996,255.993z M415.992,255.993c0-88.373-71.623-159.996-159.995-159.996v32 c70.591,0,127.996,57.436,127.996,127.996H415.992z M255.997,0v31.999c123.496,0,223.993,100.497,223.993,223.994h31.999 C511.989,114.622,397.368,0,255.997,0z"/>
</symbol>
<symbol id="mail" viewBox="0 0 79.536 79.536" >
<path style="fill:#fff3e4;" d="M39.773,1.31L0,31.004v47.222h79.536V31.004L39.773,1.31z M28.77,22.499 c1.167-2.133,2.775-3.739,4.815-4.805c2.035-1.075,4.357-1.616,6.983-1.616c2.214,0,4.191,0.435,5.921,1.292 c1.729,0.87,3.045,2.094,3.967,3.687c0.9,1.595,1.367,3.334,1.367,5.217c0,2.247-0.694,4.279-2.082,6.097 c-1.74,2.292-3.961,3.436-6.68,3.436c-0.732,0-1.279-0.122-1.654-0.38c-0.365-0.262-0.621-0.632-0.743-1.129 c-1.022,1.012-2.231,1.52-3.589,1.52c-1.465,0-2.679-0.507-3.643-1.509c-0.966-1.012-1.447-2.361-1.447-4.031 c0-2.084,0.578-3.966,1.743-5.672c1.416-2.084,3.218-3.13,5.424-3.13c1.571,0,2.731,0.601,3.475,1.805l0.331-1.468h3.5 l-1.998,9.479c-0.125,0.606-0.187,0.986-0.187,1.163c0,0.228,0.052,0.38,0.149,0.497c0.099,0.111,0.223,0.165,0.357,0.165 c0.436,0,0.979-0.248,1.646-0.769c0.901-0.663,1.627-1.574,2.181-2.695c0.554-1.129,0.839-2.299,0.839-3.508 c0-2.165-0.782-3.977-2.352-5.445c-1.573-1.45-3.77-2.185-6.578-2.185c-2.393,0-4.417,0.487-6.077,1.468 c-1.66,0.966-2.913,2.343-3.765,4.114c-0.839,1.76-1.258,3.607-1.258,5.52c0,1.856,0.479,3.552,1.411,5.074 c0.945,1.533,2.26,2.641,3.956,3.345c1.696,0.697,3.643,1.046,5.828,1.046c2.097,0,3.909-0.293,5.432-0.881 c1.522-0.587,2.739-1.457,3.666-2.641h2.807c-0.88,1.792-2.227,3.192-4.049,4.215c-2.092,1.163-4.64,1.74-7.644,1.74 c-2.918,0-5.426-0.487-7.542-1.468c-2.121-0.986-3.689-2.434-4.73-4.35c-1.028-1.918-1.535-4.008-1.535-6.268 C27.017,26.952,27.595,24.64,28.77,22.499z M2.804,31.941l29.344,19.68L2.804,74.333V31.941z M5.033,75.844l34.74-26.885 l34.729,26.885H5.033z M76.729,74.333L47.391,51.621l29.339-19.68V74.333z M41.205,24.661c0.466,0.531,0.699,1.295,0.699,2.292 c0,0.891-0.174,1.856-0.513,2.879c-0.334,1.036-0.743,1.826-1.209,2.361c-0.318,0.375-0.658,0.652-0.992,0.826 c-0.439,0.249-0.906,0.37-1.41,0.37c-0.674,0.006-1.23-0.264-1.691-0.794c-0.45-0.531-0.673-1.346-0.673-2.465 c0-0.839,0.158-1.805,0.487-2.889c0.329-1.088,0.81-1.916,1.453-2.509c0.647-0.588,1.346-0.881,2.1-0.881 C40.162,23.856,40.749,24.125,41.205,24.661z"/>

</symbol>
</svg>